<svg width="1440" height="296" viewBox="0 0 1440 296" fill="none" xmlns="http://www.w3.org/2000/svg">
<path fill-rule="evenodd" clip-rule="evenodd" d="M0 221.972L60 197.308C120 172.645 240 123.318 360 129.483C480 135.649 600 197.308 720 197.308C840 197.308 960 135.649 1080 92.4882C1200 49.327 1320 24.6635 1380 12.3318L1440 0V295.962H1380C1320 295.962 1200 295.962 1080 295.962C960 295.962 840 295.962 720 295.962C600 295.962 480 295.962 360 295.962C240 295.962 120 295.962 60 295.962H0V221.972Z" fill="#7B2CBF"/>
</svg>
